<?xml version="1.0" encoding="UTF-8" standalone="no"?>
<!-- Created with Inkscape (http://www.inkscape.org/) -->

<svg
   width="15mm"
   height="15mm"
   viewBox="0 0 14.999999 15"
   version="1.1"
   id="svg1"
   xmlns="http://www.w3.org/2000/svg"
   xmlns:svg="http://www.w3.org/2000/svg">
  <defs
     id="defs1" />
  <g
     id="layer1">
    <path
       d="m 7.4968999,14.993074 c -0.62473,0 -1.15572,-0.218651 -1.59303,-0.655955 -0.4373,-0.437303 -0.65593,-0.968295 -0.65593,-1.593003 0,-0.06249 0.003,-0.131207 0.009,-0.206163 0.006,-0.07496 0.0156,-0.143696 0.0281,-0.206164 L 3.72953,11.450965 c -0.1999201,0.174916 -0.42482,0.309218 -0.6746901,0.402934 -0.2499,0.09369 -0.51853,0.140547 -0.8058899,0.140547 -0.62471,0 -1.1557101,-0.218652 -1.59301001,-0.655929 C 0.21864,10.901214 0,10.370195 0,9.7454873 0,9.1207793 0.21864,8.589787 0.65593999,8.152484 1.0932399,7.715181 1.6242399,7.496529 2.2489499,7.496529 c 0.29987,0 0.58099,0.05622 0.84336,0.168672 0.26238,0.112448 0.49977,0.268631 0.71217,0.46855 l 2.23023,-1.124479 c -0.0375,-0.28739 -0.0219,-0.56851 0.0468,-0.843359 0.0687,-0.274876 0.19055,-0.531019 0.36547,-0.768403 l -0.6372,-0.97454 c -0.0875,0.02498 -0.17806,0.04371 -0.27175,0.05622 -0.0937,0.01249 -0.19055,0.01873 -0.29049,0.01873 -0.62473,0 -1.15572,-0.218652 -1.59302,-0.655955 -0.43731,-0.437304 -0.65593,-0.968296 -0.65593,-1.593004 0,-0.624707 0.21862,-1.155718 0.65593,-1.593016 C 4.0918199,0.218649 4.6228099,0 5.2475399,0 c 0.62471,0 1.1557,0.218649 1.59301,0.655945 0.4373,0.437298 0.65595,0.968309 0.65595,1.593016 0,0.249873 -0.0406,0.490406 -0.12184,0.721546 -0.0812,0.23114 -0.19052,0.440425 -0.32795,0.627829 l 0.65593,0.97454 c 0.1,-0.02498 0.19368,-0.04374 0.28112,-0.05622 0.0875,-0.01249 0.1811601,-0.01873 0.28112,-0.01873 0.21241,0 0.4123301,0.02498 0.59973,0.07496 0.18741,0.04998 0.36857,0.124936 0.54351,0.224896 L 10.64504,3.785751 c -0.05,-0.124937 -0.0875,-0.252995 -0.11244,-0.384202 -0.025,-0.13118 -0.0375,-0.265483 -0.0375,-0.402934 0,-0.624707 0.21865,-1.1557 0.65595,-1.593006 0.43728,-0.437298 0.9683,-0.655947 1.593,-0.655947 0.62471,0 1.1557,0.218649 1.59301,0.655947 0.4373,0.437306 0.65595,0.968299 0.65595,1.593006 0,0.624708 -0.21865,1.155727 -0.65595,1.59303 -0.43731,0.437277 -0.9683,0.655929 -1.59301,0.655929 -0.2124,0 -0.4123,-0.0281 -0.59973,-0.08432 -0.1874,-0.05622 -0.36856,-0.134329 -0.54348,-0.234262 l -1.23692,1.030764 c 0.0499,0.124936 0.0874,0.252994 0.11244,0.384201 0.025,0.13118 0.0375,0.265483 0.0375,0.402934 0,0.624708 -0.21865,1.1557 -0.6559304,1.593003 -0.4372997,0.4373043 -0.9683197,0.6559553 -1.5930297,0.6559553 -0.29985,0 -0.58409,-0.05622 -0.85273,-0.168672 C 7.1435399,8.714729 6.9030399,8.558546 6.6906299,8.358653 l -2.21147,1.1057203 c 0.025,0.112448 0.0344,0.224896 0.0281,0.337344 -0.006,0.112448 -0.0219,0.2248957 -0.0468,0.3373437 l 1.57427,0.899583 c 0.19989,-0.174916 0.42167,-0.309218 0.6653,-0.402934 0.24365,-0.09372 0.50913,-0.140546 0.79652,-0.140546 0.62471,0 1.1557001,0.218625 1.5930101,0.655928 0.4373,0.437303 0.6559497,0.968296 0.6559497,1.59303 0,0.624708 -0.2186497,1.1557 -0.6559497,1.593003 -0.43731,0.437304 -0.9683,0.655955 -1.59301,0.655955 z m -5.24758,-4.497916 c 0.2124,0 0.39044,-0.07186 0.53414,-0.21553 0.14367,-0.143695 0.21553,-0.3217327 0.21553,-0.5341407 0,-0.212407 -0.0719,-0.390445 -0.21553,-0.534114 -0.1437,-0.143695 -0.32174,-0.21553 -0.53414,-0.21553 -0.21241,0 -0.39045,0.07183 -0.53412,0.21553 -0.14369,0.143669 -0.21553,0.321707 -0.21553,0.534114 0,0.212408 0.0718,0.3904457 0.21553,0.5341407 0.14367,0.143669 0.32171,0.21553 0.53412,0.21553 z m 2.99862,-7.496546 c 0.21239,0 0.39045,-0.07183 0.53412,-0.215529 0.14369,-0.143669 0.21553,-0.321707 0.21553,-0.534115 0,-0.212407 -0.0718,-0.390445 -0.21553,-0.53414 -0.14367,-0.143669 -0.32173,-0.215504 -0.53412,-0.215504 -0.2124,0 -0.39044,0.07183 -0.53414,0.215504 -0.14366,0.143695 -0.21553,0.321733 -0.21553,0.53414 0,0.212408 0.0719,0.390446 0.21553,0.534115 0.1437,0.143695 0.32174,0.215529 0.53414,0.215529 z m 2.24896,10.495148 c 0.21238,0 0.39045,-0.07183 0.53412,-0.21553 0.14369,-0.143695 0.21553,-0.321733 0.21553,-0.534114 0,-0.212408 -0.0718,-0.390446 -0.21553,-0.534141 -0.14367,-0.143695 -0.32174,-0.215529 -0.53412,-0.215529 -0.2124,0 -0.39044,0.07183 -0.53414,0.215529 -0.14367,0.143695 -0.21553,0.321733 -0.21553,0.534141 0,0.212381 0.0719,0.390419 0.21553,0.534114 0.1437,0.143695 0.32174,0.21553 0.53414,0.21553 z m 0.74965,-5.997231 c 0.2124,0 0.39044,-0.07183 0.53411,-0.21553 0.1437001,-0.143668 0.21553,-0.321707 0.21553,-0.534114 0,-0.212408 -0.0718,-0.390446 -0.21553,-0.534141 -0.14367,-0.143669 -0.32171,-0.215503 -0.53411,-0.215503 -0.21241,0 -0.39045,0.07183 -0.53414,0.215503 -0.14367,0.143695 -0.21551,0.321733 -0.21551,0.534141 0,0.212407 0.0718,0.390446 0.21551,0.534114 0.14369,0.143696 0.32173,0.21553 0.53414,0.21553 z M 12.74446,3.748283 c 0.21241,0 0.39045,-0.07186 0.53412,-0.21553 0.14369,-0.143695 0.21553,-0.321733 0.21553,-0.534141 0,-0.212407 -0.0718,-0.390445 -0.21553,-0.534114 -0.14367,-0.143695 -0.32171,-0.21553 -0.53412,-0.21553 -0.2124,0 -0.39044,0.07183 -0.53414,0.21553 -0.14367,0.143669 -0.2155,0.321707 -0.2155,0.534114 0,0.212408 0.0718,0.390446 0.2155,0.534141 0.1437,0.143669 0.32174,0.21553 0.53414,0.21553 z"
       fill="#228be6"
       id="path2"
       style="stroke-width:0.264583" />
  </g>
</svg>
