<?xml version="1.0" encoding="UTF-8" standalone="no"?>
<svg
        height="24px"
        viewBox="0 -960 960 960"
        width="24px"
        fill="#008000"
        version="1.1"
        id="svg1"
        sodipodi:docname="internetActive.svg"
        inkscape:version="1.4 (86a8ad7, 2024-10-11)"
        xmlns:inkscape="http://www.inkscape.org/namespaces/inkscape"
        xmlns:sodipodi="http://sodipodi.sourceforge.net/DTD/sodipodi-0.dtd"
        xmlns="http://www.w3.org/2000/svg"
>
    <defs
            id="defs1"/>
    <sodipodi:namedview
            id="namedview1"
            pagecolor="#ffffff"
            bordercolor="#000000"
            borderopacity="0.25"
            inkscape:showpageshadow="2"
            inkscape:pageopacity="0.0"
            inkscape:pagecheckerboard="0"
            inkscape:deskcolor="#d1d1d1"
            inkscape:zoom="33.625"
            inkscape:cx="12"
            inkscape:cy="12"
            inkscape:window-width="1920"
            inkscape:window-height="1009"
            inkscape:window-x="-8"
            inkscape:window-y="-8"
            inkscape:window-maximized="1"
            inkscape:current-layer="svg1"/>
    <circle
            style="fill:#ffffff;fill-opacity:1;stroke-width:40"
            id="path2"
            cx="481.18961"
            cy="-482.37921"
            r="393.15985"/>
    <path
            d="M480-80q-82 0-155-31.5t-127.5-86Q143-252 111.5-325T80-480q0-83 31.5-155.5t86-127Q252-817 325-848.5T480-880q83 0 155.5 31.5t127 86q54.5 54.5 86 127T880-480q0 82-31.5 155t-86 127.5q-54.5 54.5-127 86T480-80Zm0-82q26-36 45-75t31-83H404q12 44 31 83t45 75Zm-104-16q-18-33-31.5-68.5T322-320H204q29 50 72.5 87t99.5 55Zm208 0q56-18 99.5-55t72.5-87H638q-9 38-22.5 73.5T584-178ZM170-400h136q-3-20-4.5-39.5T300-480q0-21 1.5-40.5T306-560H170q-5 20-7.5 39.5T160-480q0 21 2.5 40.5T170-400Zm216 0h188q3-20 4.5-39.5T580-480q0-21-1.5-40.5T574-560H386q-3 20-4.5 39.5T380-480q0 21 1.5 40.5T386-400Zm268 0h136q5-20 7.5-39.5T800-480q0-21-2.5-40.5T790-560H654q3 20 4.5 39.5T660-480q0 21-1.5 40.5T654-400Zm-16-240h118q-29-50-72.5-87T584-782q18 33 31.5 68.5T638-640Zm-234 0h152q-12-44-31-83t-45-75q-26 36-45 75t-31 83Zm-200 0h118q9-38 22.5-73.5T376-782q-56 18-99.5 55T204-640Z"
            id="path1"/>
</svg>
