<svg width="327" height="67" viewBox="0 0 327 67" fill="none" xmlns="http://www.w3.org/2000/svg">
<g clip-path="url(#clip0_40_2)">
<rect width="327" height="67" fill="white"/>
<path d="M97.7695 17.5625V46H91.9297V17.5625H97.7695ZM108.414 29.3789V46H102.789V24.8672H108.062L108.414 29.3789ZM107.594 34.6914H106.07C106.07 33.1289 106.272 31.7227 106.676 30.4727C107.079 29.2096 107.646 28.1354 108.375 27.25C109.104 26.3516 109.97 25.668 110.973 25.1992C111.988 24.7174 113.121 24.4766 114.371 24.4766C115.361 24.4766 116.266 24.6198 117.086 24.9062C117.906 25.1927 118.609 25.6484 119.195 26.2734C119.794 26.8984 120.25 27.7253 120.562 28.7539C120.888 29.7826 121.051 31.0391 121.051 32.5234V46H115.387V32.5039C115.387 31.5664 115.257 30.8372 114.996 30.3164C114.736 29.7956 114.352 29.431 113.844 29.2227C113.349 29.0013 112.737 28.8906 112.008 28.8906C111.253 28.8906 110.595 29.0404 110.035 29.3398C109.488 29.6393 109.033 30.056 108.668 30.5898C108.316 31.1107 108.049 31.7227 107.867 32.4258C107.685 33.1289 107.594 33.8841 107.594 34.6914ZM135.68 24.8672V28.8516H123.375V24.8672H135.68ZM126.422 19.6523H132.047V39.6328C132.047 40.2448 132.125 40.7135 132.281 41.0391C132.451 41.3646 132.698 41.5924 133.023 41.7227C133.349 41.8398 133.759 41.8984 134.254 41.8984C134.605 41.8984 134.918 41.8854 135.191 41.8594C135.478 41.8203 135.719 41.7812 135.914 41.7422L135.934 45.8828C135.452 46.0391 134.931 46.1628 134.371 46.2539C133.811 46.3451 133.193 46.3906 132.516 46.3906C131.279 46.3906 130.198 46.1888 129.273 45.7852C128.362 45.3685 127.659 44.7044 127.164 43.793C126.669 42.8815 126.422 41.6836 126.422 40.1992V19.6523ZM148.609 46.3906C146.969 46.3906 145.497 46.1302 144.195 45.6094C142.893 45.0755 141.786 44.3398 140.875 43.4023C139.977 42.4648 139.286 41.3776 138.805 40.1406C138.323 38.8906 138.082 37.5625 138.082 36.1562V35.375C138.082 33.7734 138.31 32.3086 138.766 30.9805C139.221 29.6523 139.872 28.5 140.719 27.5234C141.578 26.5469 142.62 25.7982 143.844 25.2773C145.068 24.7435 146.448 24.4766 147.984 24.4766C149.482 24.4766 150.81 24.724 151.969 25.2188C153.128 25.7135 154.098 26.4167 154.879 27.3281C155.673 28.2396 156.272 29.3333 156.676 30.6094C157.079 31.8724 157.281 33.2786 157.281 34.8281V37.1719H140.484V33.4219H151.754V32.9922C151.754 32.2109 151.611 31.5143 151.324 30.9023C151.051 30.2773 150.634 29.7826 150.074 29.418C149.514 29.0534 148.798 28.8711 147.926 28.8711C147.184 28.8711 146.546 29.0339 146.012 29.3594C145.478 29.6849 145.042 30.1406 144.703 30.7266C144.378 31.3125 144.13 32.0026 143.961 32.7969C143.805 33.5781 143.727 34.4375 143.727 35.375V36.1562C143.727 37.0026 143.844 37.7839 144.078 38.5C144.326 39.2161 144.671 39.8346 145.113 40.3555C145.569 40.8763 146.116 41.2799 146.754 41.5664C147.405 41.8529 148.141 41.9961 148.961 41.9961C149.977 41.9961 150.921 41.8008 151.793 41.4102C152.678 41.0065 153.44 40.401 154.078 39.5938L156.812 42.5625C156.37 43.2005 155.764 43.8125 154.996 44.3984C154.241 44.9844 153.329 45.4661 152.262 45.8438C151.194 46.2083 149.977 46.3906 148.609 46.3906ZM166.109 29.4766V46H160.484V24.8672H165.777L166.109 29.4766ZM172.477 24.7305L172.379 29.9453C172.105 29.9062 171.773 29.8737 171.383 29.8477C171.005 29.8086 170.66 29.7891 170.348 29.7891C169.553 29.7891 168.863 29.8932 168.277 30.1016C167.704 30.2969 167.223 30.5898 166.832 30.9805C166.454 31.3711 166.168 31.8464 165.973 32.4062C165.79 32.9661 165.686 33.6042 165.66 34.3203L164.527 33.9688C164.527 32.6016 164.664 31.3451 164.938 30.1992C165.211 29.0404 165.608 28.0312 166.129 27.1719C166.663 26.3125 167.314 25.6484 168.082 25.1797C168.85 24.7109 169.729 24.4766 170.719 24.4766C171.031 24.4766 171.35 24.5026 171.676 24.5547C172.001 24.5938 172.268 24.6523 172.477 24.7305ZM183.473 41.9961C184.163 41.9961 184.775 41.8659 185.309 41.6055C185.842 41.332 186.259 40.9544 186.559 40.4727C186.871 39.9779 187.034 39.3984 187.047 38.7344H192.34C192.327 40.2188 191.93 41.5404 191.148 42.6992C190.367 43.8451 189.319 44.75 188.004 45.4141C186.689 46.0651 185.217 46.3906 183.59 46.3906C181.949 46.3906 180.517 46.1172 179.293 45.5703C178.082 45.0234 177.073 44.2682 176.266 43.3047C175.458 42.3281 174.853 41.1953 174.449 39.9062C174.046 38.6042 173.844 37.2109 173.844 35.7266V35.1602C173.844 33.6628 174.046 32.2695 174.449 30.9805C174.853 29.6784 175.458 28.5456 176.266 27.582C177.073 26.6055 178.082 25.8438 179.293 25.2969C180.504 24.75 181.923 24.4766 183.551 24.4766C185.283 24.4766 186.799 24.8086 188.102 25.4727C189.417 26.1367 190.445 27.0872 191.188 28.3242C191.943 29.5482 192.327 31 192.34 32.6797H187.047C187.034 31.9766 186.884 31.3385 186.598 30.7656C186.324 30.1927 185.921 29.737 185.387 29.3984C184.866 29.0469 184.221 28.8711 183.453 28.8711C182.633 28.8711 181.962 29.0469 181.441 29.3984C180.921 29.737 180.517 30.2057 180.23 30.8047C179.944 31.3906 179.742 32.0612 179.625 32.8164C179.521 33.5586 179.469 34.3398 179.469 35.1602V35.7266C179.469 36.5469 179.521 37.3346 179.625 38.0898C179.729 38.8451 179.924 39.5156 180.211 40.1016C180.51 40.6875 180.921 41.1497 181.441 41.4883C181.962 41.8268 182.639 41.9961 183.473 41.9961ZM194.703 35.6484V35.2383C194.703 33.6888 194.924 32.263 195.367 30.9609C195.81 29.6458 196.454 28.5065 197.301 27.543C198.147 26.5794 199.189 25.8307 200.426 25.2969C201.663 24.75 203.082 24.4766 204.684 24.4766C206.285 24.4766 207.711 24.75 208.961 25.2969C210.211 25.8307 211.259 26.5794 212.105 27.543C212.965 28.5065 213.616 29.6458 214.059 30.9609C214.501 32.263 214.723 33.6888 214.723 35.2383V35.6484C214.723 37.1849 214.501 38.6107 214.059 39.9258C213.616 41.2279 212.965 42.3672 212.105 43.3438C211.259 44.3073 210.217 45.056 208.98 45.5898C207.743 46.1237 206.324 46.3906 204.723 46.3906C203.121 46.3906 201.695 46.1237 200.445 45.5898C199.208 45.056 198.16 44.3073 197.301 43.3438C196.454 42.3672 195.81 41.2279 195.367 39.9258C194.924 38.6107 194.703 37.1849 194.703 35.6484ZM200.328 35.2383V35.6484C200.328 36.5339 200.406 37.3607 200.562 38.1289C200.719 38.8971 200.966 39.5742 201.305 40.1602C201.656 40.7331 202.112 41.1823 202.672 41.5078C203.232 41.8333 203.915 41.9961 204.723 41.9961C205.504 41.9961 206.174 41.8333 206.734 41.5078C207.294 41.1823 207.743 40.7331 208.082 40.1602C208.421 39.5742 208.668 38.8971 208.824 38.1289C208.993 37.3607 209.078 36.5339 209.078 35.6484V35.2383C209.078 34.3789 208.993 33.5716 208.824 32.8164C208.668 32.0482 208.414 31.3711 208.062 30.7852C207.724 30.1862 207.275 29.7174 206.715 29.3789C206.155 29.0404 205.478 28.8711 204.684 28.8711C203.889 28.8711 203.212 29.0404 202.652 29.3789C202.105 29.7174 201.656 30.1862 201.305 30.7852C200.966 31.3711 200.719 32.0482 200.562 32.8164C200.406 33.5716 200.328 34.3789 200.328 35.2383ZM223.688 29.3789V46H218.062V24.8672H223.336L223.688 29.3789ZM222.867 34.6914H221.344C221.344 33.1289 221.546 31.7227 221.949 30.4727C222.353 29.2096 222.919 28.1354 223.648 27.25C224.378 26.3516 225.243 25.668 226.246 25.1992C227.262 24.7174 228.395 24.4766 229.645 24.4766C230.634 24.4766 231.539 24.6198 232.359 24.9062C233.18 25.1927 233.883 25.6484 234.469 26.2734C235.068 26.8984 235.523 27.7253 235.836 28.7539C236.161 29.7826 236.324 31.0391 236.324 32.5234V46H230.66V32.5039C230.66 31.5664 230.53 30.8372 230.27 30.3164C230.009 29.7956 229.625 29.431 229.117 29.2227C228.622 29.0013 228.01 28.8906 227.281 28.8906C226.526 28.8906 225.868 29.0404 225.309 29.3398C224.762 29.6393 224.306 30.056 223.941 30.5898C223.59 31.1107 223.323 31.7227 223.141 32.4258C222.958 33.1289 222.867 33.8841 222.867 34.6914ZM246.109 29.3789V46H240.484V24.8672H245.758L246.109 29.3789ZM245.289 34.6914H243.766C243.766 33.1289 243.967 31.7227 244.371 30.4727C244.775 29.2096 245.341 28.1354 246.07 27.25C246.799 26.3516 247.665 25.668 248.668 25.1992C249.684 24.7174 250.816 24.4766 252.066 24.4766C253.056 24.4766 253.961 24.6198 254.781 24.9062C255.602 25.1927 256.305 25.6484 256.891 26.2734C257.49 26.8984 257.945 27.7253 258.258 28.7539C258.583 29.7826 258.746 31.0391 258.746 32.5234V46H253.082V32.5039C253.082 31.5664 252.952 30.8372 252.691 30.3164C252.431 29.7956 252.047 29.431 251.539 29.2227C251.044 29.0013 250.432 28.8906 249.703 28.8906C248.948 28.8906 248.29 29.0404 247.73 29.3398C247.184 29.6393 246.728 30.056 246.363 30.5898C246.012 31.1107 245.745 31.7227 245.562 32.4258C245.38 33.1289 245.289 33.8841 245.289 34.6914ZM272.75 46.3906C271.109 46.3906 269.638 46.1302 268.336 45.6094C267.034 45.0755 265.927 44.3398 265.016 43.4023C264.117 42.4648 263.427 41.3776 262.945 40.1406C262.464 38.8906 262.223 37.5625 262.223 36.1562V35.375C262.223 33.7734 262.451 32.3086 262.906 30.9805C263.362 29.6523 264.013 28.5 264.859 27.5234C265.719 26.5469 266.76 25.7982 267.984 25.2773C269.208 24.7435 270.589 24.4766 272.125 24.4766C273.622 24.4766 274.951 24.724 276.109 25.2188C277.268 25.7135 278.238 26.4167 279.02 27.3281C279.814 28.2396 280.413 29.3333 280.816 30.6094C281.22 31.8724 281.422 33.2786 281.422 34.8281V37.1719H264.625V33.4219H275.895V32.9922C275.895 32.2109 275.751 31.5143 275.465 30.9023C275.191 30.2773 274.775 29.7826 274.215 29.418C273.655 29.0534 272.939 28.8711 272.066 28.8711C271.324 28.8711 270.686 29.0339 270.152 29.3594C269.618 29.6849 269.182 30.1406 268.844 30.7266C268.518 31.3125 268.271 32.0026 268.102 32.7969C267.945 33.5781 267.867 34.4375 267.867 35.375V36.1562C267.867 37.0026 267.984 37.7839 268.219 38.5C268.466 39.2161 268.811 39.8346 269.254 40.3555C269.71 40.8763 270.257 41.2799 270.895 41.5664C271.546 41.8529 272.281 41.9961 273.102 41.9961C274.117 41.9961 275.061 41.8008 275.934 41.4102C276.819 41.0065 277.581 40.401 278.219 39.5938L280.953 42.5625C280.51 43.2005 279.905 43.8125 279.137 44.3984C278.382 44.9844 277.47 45.4661 276.402 45.8438C275.335 46.2083 274.117 46.3906 272.75 46.3906ZM293.355 41.9961C294.046 41.9961 294.658 41.8659 295.191 41.6055C295.725 41.332 296.142 40.9544 296.441 40.4727C296.754 39.9779 296.917 39.3984 296.93 38.7344H302.223C302.21 40.2188 301.812 41.5404 301.031 42.6992C300.25 43.8451 299.202 44.75 297.887 45.4141C296.572 46.0651 295.1 46.3906 293.473 46.3906C291.832 46.3906 290.4 46.1172 289.176 45.5703C287.965 45.0234 286.956 44.2682 286.148 43.3047C285.341 42.3281 284.736 41.1953 284.332 39.9062C283.928 38.6042 283.727 37.2109 283.727 35.7266V35.1602C283.727 33.6628 283.928 32.2695 284.332 30.9805C284.736 29.6784 285.341 28.5456 286.148 27.582C286.956 26.6055 287.965 25.8438 289.176 25.2969C290.387 24.75 291.806 24.4766 293.434 24.4766C295.165 24.4766 296.682 24.8086 297.984 25.4727C299.299 26.1367 300.328 27.0872 301.07 28.3242C301.826 29.5482 302.21 31 302.223 32.6797H296.93C296.917 31.9766 296.767 31.3385 296.48 30.7656C296.207 30.1927 295.803 29.737 295.27 29.3984C294.749 29.0469 294.104 28.8711 293.336 28.8711C292.516 28.8711 291.845 29.0469 291.324 29.3984C290.803 29.737 290.4 30.2057 290.113 30.8047C289.827 31.3906 289.625 32.0612 289.508 32.8164C289.404 33.5586 289.352 34.3398 289.352 35.1602V35.7266C289.352 36.5469 289.404 37.3346 289.508 38.0898C289.612 38.8451 289.807 39.5156 290.094 40.1016C290.393 40.6875 290.803 41.1497 291.324 41.4883C291.845 41.8268 292.522 41.9961 293.355 41.9961ZM315.836 24.8672V28.8516H303.531V24.8672H315.836ZM306.578 19.6523H312.203V39.6328C312.203 40.2448 312.281 40.7135 312.438 41.0391C312.607 41.3646 312.854 41.5924 313.18 41.7227C313.505 41.8398 313.915 41.8984 314.41 41.8984C314.762 41.8984 315.074 41.8854 315.348 41.8594C315.634 41.8203 315.875 41.7812 316.07 41.7422L316.09 45.8828C315.608 46.0391 315.087 46.1628 314.527 46.2539C313.967 46.3451 313.349 46.3906 312.672 46.3906C311.435 46.3906 310.354 46.1888 309.43 45.7852C308.518 45.3685 307.815 44.7044 307.32 43.793C306.826 42.8815 306.578 41.6836 306.578 40.1992V19.6523Z" fill="black"/>
<path d="M34 61.3334C31.6388 61.3334 29.6319 60.507 27.9791 58.8542C26.3263 57.2014 25.5 55.1945 25.5 52.8334C25.5 52.5972 25.5118 52.3375 25.5354 52.0542C25.559 51.7709 25.5944 51.5111 25.6416 51.275L19.7625 47.9459C19.0069 48.607 18.1569 49.1146 17.2125 49.4688C16.268 49.8229 15.2527 50 14.1666 50C11.8055 50 9.79857 49.1736 8.14579 47.5209C6.49301 45.8681 5.66663 43.8611 5.66663 41.5C5.66663 39.1389 6.49301 37.132 8.14579 35.4792C9.79857 33.8264 11.8055 33 14.1666 33C15.3 33 16.3625 33.2125 17.3541 33.6375C18.3458 34.0625 19.243 34.6528 20.0458 35.4084L28.475 31.1584C28.3333 30.0722 28.3923 29.0097 28.652 27.9709C28.9118 26.932 29.3722 25.9639 30.0333 25.0667L27.625 21.3834C27.2944 21.4778 26.952 21.5486 26.5979 21.5959C26.2437 21.6431 25.8777 21.6667 25.5 21.6667C23.1388 21.6667 21.1319 20.8403 19.4791 19.1875C17.8263 17.5347 17 15.5278 17 13.1667C17 10.8056 17.8263 8.79863 19.4791 7.14585C21.1319 5.49308 23.1388 4.66669 25.5 4.66669C27.8611 4.66669 29.868 5.49308 31.5208 7.14585C33.1736 8.79863 34 10.8056 34 13.1667C34 14.1111 33.8465 15.0202 33.5395 15.8938C33.2326 16.7674 32.8194 17.5584 32.3 18.2667L34.7791 21.95C35.1569 21.8556 35.5111 21.7847 35.8416 21.7375C36.1722 21.6903 36.5263 21.6667 36.9041 21.6667C37.7069 21.6667 38.4625 21.7611 39.1708 21.95C39.8791 22.1389 40.5638 22.4222 41.225 22.8L45.9 18.975C45.7111 18.5028 45.5694 18.0188 45.475 17.5229C45.3805 17.0271 45.3333 16.5195 45.3333 16C45.3333 13.6389 46.1597 11.632 47.8125 9.97919C49.4652 8.32641 51.4722 7.50002 53.8333 7.50002C56.1944 7.50002 58.2013 8.32641 59.8541 9.97919C61.5069 11.632 62.3333 13.6389 62.3333 16C62.3333 18.3611 61.5069 20.3681 59.8541 22.0209C58.2013 23.6736 56.1944 24.5 53.8333 24.5C53.0305 24.5 52.275 24.3938 51.5666 24.1813C50.8583 23.9688 50.1736 23.6736 49.5125 23.2959L44.8375 27.1917C45.0263 27.6639 45.168 28.1479 45.2625 28.6438C45.3569 29.1396 45.4041 29.6472 45.4041 30.1667C45.4041 32.5278 44.5777 34.5347 42.925 36.1875C41.2722 37.8403 39.2652 38.6667 36.9041 38.6667C35.7708 38.6667 34.6965 38.4542 33.6812 38.0292C32.6659 37.6042 31.7569 37.0139 30.9541 36.2584L22.5958 40.4375C22.6902 40.8625 22.7257 41.2875 22.702 41.7125C22.6784 42.1375 22.6194 42.5625 22.525 42.9875L28.475 46.3875C29.2305 45.7264 30.0687 45.2188 30.9895 44.8646C31.9104 44.5104 32.9138 44.3334 34 44.3334C36.3611 44.3334 38.368 45.1597 40.0208 46.8125C41.6736 48.4653 42.5 50.4722 42.5 52.8334C42.5 55.1945 41.6736 57.2014 40.0208 58.8542C38.368 60.507 36.3611 61.3334 34 61.3334ZM14.1666 44.3334C14.9694 44.3334 15.6423 44.0618 16.1854 43.5188C16.7284 42.9757 17 42.3028 17 41.5C17 40.6972 16.7284 40.0243 16.1854 39.4813C15.6423 38.9382 14.9694 38.6667 14.1666 38.6667C13.3638 38.6667 12.6909 38.9382 12.1479 39.4813C11.6048 40.0243 11.3333 40.6972 11.3333 41.5C11.3333 42.3028 11.6048 42.9757 12.1479 43.5188C12.6909 44.0618 13.3638 44.3334 14.1666 44.3334ZM25.5 16C26.3027 16 26.9757 15.7285 27.5187 15.1854C28.0618 14.6424 28.3333 13.9695 28.3333 13.1667C28.3333 12.3639 28.0618 11.691 27.5187 11.1479C26.9757 10.6049 26.3027 10.3334 25.5 10.3334C24.6972 10.3334 24.0243 10.6049 23.4812 11.1479C22.9382 11.691 22.6666 12.3639 22.6666 13.1667C22.6666 13.9695 22.9382 14.6424 23.4812 15.1854C24.0243 15.7285 24.6972 16 25.5 16ZM34 55.6667C34.8027 55.6667 35.4757 55.3952 36.0187 54.8521C36.5618 54.309 36.8333 53.6361 36.8333 52.8334C36.8333 52.0306 36.5618 51.3577 36.0187 50.8146C35.4757 50.2715 34.8027 50 34 50C33.1972 50 32.5243 50.2715 31.9812 50.8146C31.4382 51.3577 31.1666 52.0306 31.1666 52.8334C31.1666 53.6361 31.4382 54.309 31.9812 54.8521C32.5243 55.3952 33.1972 55.6667 34 55.6667ZM36.8333 33C37.6361 33 38.309 32.7285 38.852 32.1854C39.3951 31.6424 39.6666 30.9695 39.6666 30.1667C39.6666 29.3639 39.3951 28.691 38.852 28.1479C38.309 27.6049 37.6361 27.3334 36.8333 27.3334C36.0305 27.3334 35.3576 27.6049 34.8145 28.1479C34.2715 28.691 34 29.3639 34 30.1667C34 30.9695 34.2715 31.6424 34.8145 32.1854C35.3576 32.7285 36.0305 33 36.8333 33ZM53.8333 18.8334C54.6361 18.8334 55.309 18.5618 55.852 18.0188C56.3951 17.4757 56.6666 16.8028 56.6666 16C56.6666 15.1972 56.3951 14.5243 55.852 13.9813C55.309 13.4382 54.6361 13.1667 53.8333 13.1667C53.0305 13.1667 52.3576 13.4382 51.8145 13.9813C51.2715 14.5243 51 15.1972 51 16C51 16.8028 51.2715 17.4757 51.8145 18.0188C52.3576 18.5618 53.0305 18.8334 53.8333 18.8334Z" fill="#228BE6"/>
</g>
<defs>
<clipPath id="clip0_40_2">
<rect width="327" height="67" fill="white"/>
</clipPath>
</defs>
</svg>
