<svg width="39" height="39" viewBox="0 0 39 39" fill="none" xmlns="http://www.w3.org/2000/svg">
<rect x="1.5" y="1.5" width="36" height="36" rx="18" fill="white" stroke="#008000" stroke-width="3"/>
<rect x="18" y="20" width="11" height="0" transform="rotate(180 18 20)" stroke="#008000"/>
<path d="M7 19.25C6.58579 19.25 6.25 19.5858 6.25 20C6.25 20.4142 6.58579 20.75 7 20.75V20V19.25ZM18.5303 20.5303C18.8232 20.2374 18.8232 19.7626 18.5303 19.4697L13.7574 14.6967C13.4645 14.4038 12.9896 14.4038 12.6967 14.6967C12.4038 14.9896 12.4038 15.4645 12.6967 15.7574L16.9393 20L12.6967 24.2426C12.4038 24.5355 12.4038 25.0104 12.6967 25.3033C12.9896 25.5962 13.4645 25.5962 13.7574 25.3033L18.5303 20.5303ZM7 20V20.75L18 20.75V20V19.25L7 19.25V20Z" fill="#008000"/>
<rect x="22" y="20" width="11" height="0" stroke="#008000"/>
<path d="M33 20.75C33.4142 20.75 33.75 20.4142 33.75 20C33.75 19.5858 33.4142 19.25 33 19.25V20V20.75ZM21.4697 19.4697C21.1768 19.7626 21.1768 20.2374 21.4697 20.5303L26.2426 25.3033C26.5355 25.5962 27.0104 25.5962 27.3033 25.3033C27.5962 25.0104 27.5962 24.5355 27.3033 24.2426L23.0607 20L27.3033 15.7574C27.5962 15.4645 27.5962 14.9896 27.3033 14.6967C27.0104 14.4038 26.5355 14.4038 26.2426 14.6967L21.4697 19.4697ZM33 20V19.25L22 19.25V20V20.75L33 20.75V20Z" fill="#008000"/>
<rect x="20.0001" y="6.00006" width="11" height="0" transform="rotate(90 20.0001 6.00006)" stroke="#008000"/>
<path d="M19.2501 17.0001C19.2501 17.4143 19.5859 17.7501 20.0001 17.7501C20.4143 17.7501 20.7501 17.4143 20.7501 17.0001H20.0001H19.2501ZM20.5305 5.46973C20.2376 5.17684 19.7627 5.17684 19.4698 5.46973L14.6968 10.2427C14.4039 10.5356 14.4039 11.0105 14.6968 11.3034C14.9897 11.5963 15.4646 11.5963 15.7575 11.3034L20.0001 7.06072L24.2428 11.3034C24.5357 11.5963 25.0105 11.5963 25.3034 11.3034C25.5963 11.0105 25.5963 10.5356 25.3034 10.2427L20.5305 5.46973ZM20.0001 17.0001H20.7501L20.7501 6.00006H20.0001H19.2501L19.2501 17.0001H20.0001Z" fill="#008000"/>
<rect x="20.0004" y="32.9998" width="11" height="0" transform="rotate(-90 20.0004 32.9998)" stroke="#008000"/>
<path d="M20.7504 21.9998C20.7504 21.5856 20.4146 21.2498 20.0004 21.2498C19.5862 21.2498 19.2504 21.5856 19.2504 21.9998H20.0004H20.7504ZM19.47 33.5301C19.7629 33.823 20.2378 33.823 20.5307 33.5301L25.3037 28.7572C25.5966 28.4643 25.5966 27.9894 25.3037 27.6965C25.0108 27.4036 24.5359 27.4036 24.243 27.6965L20.0004 31.9392L15.7577 27.6965C15.4648 27.4036 14.99 27.4036 14.6971 27.6965C14.4042 27.9894 14.4042 28.4643 14.6971 28.7572L19.47 33.5301ZM20.0004 21.9998H19.2504L19.2504 32.9998H20.0004H20.7504L20.7504 21.9998H20.0004Z" fill="#008000"/>
</svg>
