<svg width="50" height="50" viewBox="0 0 50 50" fill="none" xmlns="http://www.w3.org/2000/svg">
    <rect x="4.5" y="6.5" width="41" height="36" rx="2.5" fill="white" stroke="#008000" stroke-width="3"/>
    <path d="M24 15.75C24.4142 15.75 24.75 15.4142 24.75 15C24.75 14.5858 24.4142 14.25 24 14.25V15V15.75ZM9.46967 14.4697C9.17678 14.7626 9.17678 15.2374 9.46967 15.5303L14.2426 20.3033C14.5355 20.5962 15.0104 20.5962 15.3033 20.3033C15.5962 20.0104 15.5962 19.5355 15.3033 19.2426L11.0607 15L15.3033 10.7574C15.5962 10.4645 15.5962 9.98959 15.3033 9.6967C15.0104 9.40381 14.5355 9.40381 14.2426 9.6967L9.46967 14.4697ZM24 15V14.25L10 14.25V15V15.75L24 15.75V15Z"
          fill="#008000"/>
    <path d="M25 19.75C24.5858 19.75 24.25 19.4142 24.25 19C24.25 18.5858 24.5858 18.25 25 18.25V19V19.75ZM40.5303 18.4697C40.8232 18.7626 40.8232 19.2374 40.5303 19.5303L35.7574 24.3033C35.4645 24.5962 34.9896 24.5962 34.6967 24.3033C34.4038 24.0104 34.4038 23.5355 34.6967 23.2426L38.9393 19L34.6967 14.7574C34.4038 14.4645 34.4038 13.9896 34.6967 13.6967C34.9896 13.4038 35.4645 13.4038 35.7574 13.6967L40.5303 18.4697ZM25 19V18.25L40 18.25V19V19.75L25 19.75V19Z"
          fill="#008000"/>
    <path d="M24 31.75C24.4142 31.75 24.75 31.4142 24.75 31C24.75 30.5858 24.4142 30.25 24 30.25V31V31.75ZM9.46967 30.4697C9.17678 30.7626 9.17678 31.2374 9.46967 31.5303L14.2426 36.3033C14.5355 36.5962 15.0104 36.5962 15.3033 36.3033C15.5962 36.0104 15.5962 35.5355 15.3033 35.2426L11.0607 31L15.3033 26.7574C15.5962 26.4645 15.5962 25.9896 15.3033 25.6967C15.0104 25.4038 14.5355 25.4038 14.2426 25.6967L9.46967 30.4697ZM24 31V30.25L10 30.25V31V31.75L24 31.75V31Z"
          fill="#008000"/>
    <path d="M26 34.25C25.5858 34.25 25.25 34.5858 25.25 35C25.25 35.4142 25.5858 35.75 26 35.75V35V34.25ZM40.5303 35.5303C40.8232 35.2374 40.8232 34.7626 40.5303 34.4697L35.7574 29.6967C35.4645 29.4038 34.9896 29.4038 34.6967 29.6967C34.4038 29.9896 34.4038 30.4645 34.6967 30.7574L38.9393 35L34.6967 39.2426C34.4038 39.5355 34.4038 40.0104 34.6967 40.3033C34.9896 40.5962 35.4645 40.5962 35.7574 40.3033L40.5303 35.5303ZM26 35V35.75L40 35.75V35V34.25L26 34.25V35Z"
          fill="#008000"/>
</svg>
